PathFileType	4	(X/Y/Z)	C:/Users/beibeiliu/ov580/test_trc/User3\sequence.24_training_dense_left.trc
DataRate	CameraRate	NumFrames	NumMarkers	Units	OrigDataRate	OrigDataStartFrame	OrigNumFrames
120	120	9	19	mm	120	26	75
Frame#	Time	ThumbCMC			ThumbMCP			ThumbIP			ThumbTip			IndexMCP			IndexPIP			IndexTip			MiddleMCP			MiddlePIP			MiddleTip			RingMCP			RingPIP			RingTip			PinkyMCP			PinkyPIP			PinkyTip			BackHand1			BackHand2			BackHand3	
		X0	Y0	Z0	X1	Y1	Z1	X2	Y2	Z2	X3	Y3	Z3	X4	Y4	Z4	X5	Y5	Z5	X6	Y6	Z6	X7	Y7	Z7	X8	Y8	Z8	X9	Y9	Z9	X10	Y10	Z10	X11	Y11	Z11	X12	Y12	Z12	X13	Y13	Z13	X14	Y14	Z14	X15	Y15	Z15	X16	Y16	Z16	X17	Y17	Z17	X18	Y18	Z18	
25	0.208333	-142.917	5.88092	45.1745	-132.582	9.50356	6.38098	-131.504	-5.39236	-24.3949	-130.382	-28.4734	-37.1056	-201.749	-10.2644	-8.71945	-211.493	-8.44482	-33.68	-219.22	-9.19353	-56.4328	-205.603	-26.8235	-10.6227	-216.77	-23.2169	-36.4545	-224.237	-23.8657	-67.0367	-177.918	-46.9261	-16.2378	-151.72	-40.5003	-35.0767	-128.733	-30.8029	-11.2572	-157.965	-56.1115	-8.41848	-133.291	-45.9177	-16.2192	-121.917	-34.7425	8.56279	-175.758	-49.7704	45.6965	-164.72	-45.4123	69.7279	-174.509	-16.3976	57.4433	
26	0.216667	-126.317	11.8339	42.1441	-120.405	6.6803	4.41991	-128.04	-7.98661	-21.2703	-137.345	-29.8648	-29.728	-186.676	20.5961	-1.9168	-200.227	19.6161	-25.0977	-209.099	22.3095	-46.4271	-201.008	-0.199792	-6.15313	-209.157	9.48642	-29.389	-219.439	14.0419	-57.3633	-183.751	-22.0931	-12.2872	-160.173	-28.202	-33.2746	-132.488	-26.9136	-12.7392	-170.433	-46.1823	-3.05116	-144.049	-41.2591	-14.2467	-125.233	-37.7104	6.93212	-180.433	-28.9385	45.2319	-164.684	-33.6835	76.0732	-163.429	2.97602	58.6493	
27	0.225	-111.957	3.15016	44.5459	-103.775	-1.60315	6.79403	-119.322	-11.059	-24.0624	-138.209	-29.135	-32.7495	-163.608	33.6696	0.264172	-173.52	46.1558	-25.4771	-184.638	47.4896	-44.972	-180.811	27.7639	-5.35913	-191.243	34.8745	-29.0604	-196.567	47.3535	-59.903	-178.849	-5.20094	-9.07747	-158.791	-19.3206	-31.4223	-135.874	-30.5026	-14.5095	-175.159	-31.0252	-2.31161	-152.092	-36.8276	-14.1179	-131.716	-39.9538	9.15967	-171.431	-7.48401	48.1262	-161.452	-21.3052	75.5353	-148.906	11.6994	57.6954	
28	0.233333	-99.003	-2.68886	41.3417	-97.3054	-13.3528	9.2007	-112.142	-20.959	-19.7449	-133.933	-31.7957	-27.3592	-142.426	39.2502	-5.13901	-149.05	47.5997	-27.4245	-159.328	56.2548	-53.2148	-158.507	34.5989	-4.91044	-166	47.1063	-33.3927	-171.372	53.2275	-59.0513	-166.317	5.11673	-12.76	-152.195	-13.5571	-33.3659	-133.422	-30.4929	-14.9665	-169.681	-18.2212	-1.99888	-149.826	-37.5968	-12.1358	-132.973	-43.3782	12.1163	-166.958	3.05122	44.975	-154.893	-10.226	76.4603	-134.089	15.1341	59.1671	
29	0.241667	-91.5334	-11.8829	42.7149	-92.6263	-23.7355	7.53125	-103.358	-34.3424	-21.5228	-131.295	-42.6506	-28.1203	-126.221	30.303	-12.5321	-128.284	38.3444	-38.8112	-132.857	44.9076	-65.0053	-147.308	30.7256	-16.0349	-148.199	37.8835	-43.2536	-149.719	44.8118	-75.4792	-155.609	3.01531	-16.4772	-147.661	-20.4421	-34.0228	-134.144	-40.0141	-11.8458	-162.134	-17.8925	-3.67177	-146.764	-41.9717	-11.1124	-132.027	-45.4725	14.7022	-151.783	8.63719	42.9639	-147.437	-1.98637	69.636	-121.024	16.2121	53.2257	
30	0.25	-89.7599	-15.6212	37.0969	-85.6334	-36.0795	4.82806	-102.75	-48.3369	-14.4348	-130.127	-53.0851	-22.1431	-110.074	18.248	-29.4949	-115.243	17.1634	-50.1633	-120.424	18.4083	-79.2592	-133.803	17.3943	-26.6891	-134.961	19.1224	-56.9828	-135.652	17.9328	-85.6996	-147.943	-6.02327	-25.2644	-144.469	-36.1928	-33.8723	-127.313	-47.8025	-8.70659	-157.903	-25.3361	-8.19165	-147.318	-49.3598	-7.89078	-130.497	-50.8921	21.8131	-148.698	12.556	31.0968	-142.849	5.9535	63.345	-113.824	16.5305	42.3199	
31	0.258333	-83.5672	-18.5463	36.9772	-81.1651	-46.705	7.94315	-98.9741	-58.9296	-11.0061	-125.156	-66.5454	-21.9171	-104.609	4.5111	-36.4889	-102.937	0.45347	-59.5235	-106.638	-4.05037	-85.6159	-122.999	6.85678	-39.6633	-123.1	1.66641	-66.2635	-122.058	-3.09242	-96.5092	-143.443	-16.056	-26.3472	-139.436	-43.7064	-34.7966	-126.486	-56.6453	-4.88241	-156.126	-28.5761	-7.65352	-145.1	-56.6677	-3.42666	-131.836	-55.753	20.7208	-139.982	13.3605	23.3705	-134.442	11.2985	55.9848	-102.329	14.839	32.328	
32	0.266667	-80.6101	-19.3864	35.5899	-78.5203	-49.718	14.2985	-93.7128	-70.231	-5.86542	-120.519	-73.9188	-13.1745	-95.2769	-5.79589	-35.7834	-98.1597	-15.4778	-62.9585	-101.705	-24.6569	-86.6041	-119.244	-5.46072	-40.4209	-118.149	-13.4321	-67.7259	-115.022	-26.1976	-96.4813	-135.148	-25.8084	-28.5236	-134.742	-56.3252	-30.3978	-123.304	-63.5721	0.832343	-151.708	-37.5718	-8.13732	-137.085	-60.4286	-0.859588	-124.794	-54.9252	27.2127	-137.307	10.5618	15.6437	-131.91	13.8355	49.1453	-104.932	12.8589	28.6092	
33	0.275	-75.2771	-13.5433	38.3965	-71.7861	-48.7627	20.5947	-86.3508	-74.0166	1.96054	-108.024	-81.7474	-2.28074	-94.5678	-16.417	-35.8872	-93.1365	-29.2696	-60.2259	-91.6786	-43.9739	-81.8915	-111.48	-18.5991	-43.486	-109.641	-30.9107	-65.9279	-104.365	-47.1347	-90.0368	-126.874	-40.6813	-26.3056	-122.374	-68.0866	-19.9054	-112.198	-65.4596	13.7076	-142.401	-51.299	-5.61183	-126.243	-66.3938	8.50097	-117.774	-58.0665	35.294	-133.293	5.61351	10.293	-134.276	14.4724	38.9339	-104.934	15.5062	22.0553	
